<svg xmlns="http://www.w3.org/2000/svg" version="1.1" xmlns:xlink="http://www.w3.org/1999/xlink" xmlns:svgjs="http://svgjs.dev/svgjs" width="1000" height="212" viewBox="0 0 1000 212"><g transform="matrix(1,0,0,1,-0.6060606060606233,0.6228869460788644)"><svg viewBox="0 0 396 84" data-background-color="#252327" preserveAspectRatio="xMidYMid meet" height="212" width="1000" xmlns="http://www.w3.org/2000/svg" xmlns:xlink="http://www.w3.org/1999/xlink"><g id="tight-bounds" transform="matrix(1,0,0,1,0.2400000000000091,-0.24680426165389235)"><svg viewBox="0 0 395.52 84.4933109550655" height="84.4933109550655" width="395.52"><g><svg viewBox="0 0 530.9356556552448 113.4216005522102" height="84.4933109550655" width="395.52"><g transform="matrix(1,0,0,1,135.4156556552448,33.41951367450794)"><svg viewBox="0 0 395.52 46.58257320319432" height="46.58257320319432" width="395.52"><g id="textblocktransform"><svg viewBox="0 0 395.52 46.58257320319432" height="46.58257320319432" width="395.52" id="textblock"><g><svg viewBox="0 0 395.52 46.58257320319432" height="46.58257320319432" width="395.52"><g transform="matrix(1,0,0,1,0,0)"><svg width="395.52" viewBox="4.37 -31.61 271.24 32.07" height="46.58257320319432" data-palette-color="#ffffff"><g class="undefined-text-0" data-fill-palette-color="primary" id="text-0"><path d="M23.22 0L6.32 0Q5.63 0 5.17-0.46L5.17-0.46Q4.37-1.15 4.37-1.9L4.37-1.9 4.37-29.43Q4.37-30.52 5.52-31.15L5.52-31.15Q5.86-31.26 6.21-31.38L6.21-31.38 22.59-31.38Q23.45-31.38 23.85-30.86 24.25-30.34 24.25-29.74 24.25-29.14 23.79-28.62 23.33-28.1 22.59-28.1L22.59-28.1 8.16-28.1 8.16-17.7 21.9-17.7Q22.76-17.7 23.16-17.21 23.56-16.72 23.56-16.09L23.56-16.09Q23.56-15.52 23.1-15.06 22.64-14.6 21.9-14.6L21.9-14.6 8.16-14.6 8.16-3.22 23.22-3.22Q24.02-3.22 24.43-2.7 24.83-2.18 24.83-1.55 24.83-0.92 24.4-0.46 23.97 0 23.22 0L23.22 0ZM40.92 0L33.33 0Q32.12 0 31.49-1.15L31.49-1.15Q31.38-1.49 31.43-1.9L31.43-1.9 31.43-29.43Q31.43-30.57 32.53-31.21L32.53-31.21Q32.87-31.38 33.33-31.38L33.33-31.38 40.8-31.38Q53.16-31.38 56.55-22.41L56.55-22.41Q57.64-19.48 57.58-15.63L57.58-15.63Q57.58-7.93 53.22-3.97L53.22-3.97Q48.85 0 40.92 0L40.92 0ZM35.28-28.28L35.28-2.99 41.38-2.99Q50.57-2.99 52.76-10.46L52.76-10.46Q53.45-12.76 53.45-15.8 53.45-18.85 52.53-21.26 51.61-23.68 49.88-25.29L49.88-25.29Q46.61-28.28 40.23-28.28L40.23-28.28 35.28-28.28ZM64.36-10.92L64.36-29.48Q64.36-30.34 64.82-30.69L64.82-30.69Q65.57-31.38 66.35-31.38 67.12-31.38 67.72-30.92 68.33-30.46 68.33-29.48L68.33-29.48 68.33-10.92Q68.33-7.01 70.91-4.71L70.91-4.71Q73.21-2.76 76.6-2.76L76.6-2.76Q80.05-2.76 82.29-4.71L82.29-4.71Q84.88-6.9 84.88-10.92L84.88-10.92 84.88-29.48Q84.88-30.34 85.4-30.69L85.4-30.69Q86.09-31.38 86.86-31.38 87.64-31.38 88.24-30.92 88.85-30.46 88.85-29.48L88.85-29.48 88.85-10.92Q88.85-5.4 85.17-2.24L85.17-2.24Q81.83 0.52 76.6 0.46L76.6 0.46Q71.43 0.46 68.04-2.24L68.04-2.24Q64.36-5.4 64.36-10.92L64.36-10.92ZM95.45-15.52L95.45-15.52Q95.45-18.51 96.31-21.55 97.18-24.6 98.96-26.78L98.96-26.78Q102.75-31.61 109.76-31.61L109.76-31.61Q113.79-31.61 117.58-29.83L117.58-29.83Q118.56-29.43 118.56-28.51L118.56-28.51Q118.56-26.78 117.18-26.72L117.18-26.72Q116.89-26.72 116.66-26.78L116.66-26.78Q112.69-28.16 110.37-28.16 108.04-28.16 106.49-27.64 104.94-27.13 103.79-26.21 102.64-25.29 101.83-24.08 101.03-22.87 100.57-21.38L100.57-21.38Q99.59-18.62 99.59-15.52L99.59-15.52Q99.59-10.46 101.83-7.01L101.83-7.01Q104.48-2.93 109.99-2.93L109.99-2.93Q113.79-2.93 117.23-4.94L117.23-4.94Q117.69-5.06 118.12-5.06 118.56-5.06 118.93-4.66 119.3-4.25 119.3-3.62 119.3-2.99 118.84-2.44 118.38-1.9 117.61-1.47 116.83-1.03 115.88-0.69 114.94-0.34 113.9-0.11L113.9-0.11Q111.72 0.46 109.76 0.46L109.76 0.46Q102.69 0.46 98.96-4.31L98.96-4.31Q95.45-8.62 95.45-15.52ZM142.06-27.93L152.63-2.41Q152.69-2.07 152.69-1.72 152.69-1.38 152.52-1.03 152.35-0.69 152.06-0.52L152.06-0.52Q151.48 0 150.79 0L150.79 0Q149.42 0 148.96-1.21L148.96-1.21 146.14-8.16 130.62-8.16 127.86-1.21Q127.46 0 126.25 0 125.05 0 124.42-1.03L124.42-1.03Q124.24-1.38 124.24-1.67 124.24-1.95 124.42-2.41L124.42-2.41 134.82-27.93Q135.97-30.8 137.46-31.21L137.46-31.21Q137.86-31.26 138.5-31.38L138.5-31.38Q139.65-31.38 140.22-30.86L140.22-30.86Q141.14-30.17 142.06-27.93L142.06-27.93ZM138.38-28.1L131.71-11.21 145.1-11.21 138.38-28.1Z" fill="#ffffff" data-fill-palette-color="primary"></path><path d="M155.28-15.52L155.28-15.52Q155.28-18.51 156.14-21.55 157-24.6 158.78-26.78L158.78-26.78Q162.58-31.61 169.59-31.61L169.59-31.61Q173.61-31.61 177.4-29.83L177.4-29.83Q178.38-29.43 178.38-28.51L178.38-28.51Q178.38-26.78 177-26.72L177-26.72Q176.71-26.72 176.48-26.78L176.48-26.78Q172.52-28.16 170.19-28.16 167.86-28.16 166.31-27.64 164.76-27.13 163.61-26.21 162.46-25.29 161.66-24.08 160.85-22.87 160.39-21.38L160.39-21.38Q159.41-18.62 159.41-15.52L159.41-15.52Q159.41-10.46 161.66-7.01L161.66-7.01Q164.3-2.93 169.82-2.93L169.82-2.93Q173.61-2.93 177.06-4.94L177.06-4.94Q177.52-5.06 177.95-5.06 178.38-5.06 178.75-4.66 179.13-4.25 179.13-3.62 179.13-2.99 178.67-2.44 178.21-1.9 177.43-1.47 176.66-1.03 175.71-0.69 174.76-0.34 173.72-0.11L173.72-0.11Q171.54 0.46 169.59 0.46L169.59 0.46Q162.52 0.46 158.78-4.31L158.78-4.31Q155.28-8.62 155.28-15.52ZM190.65-20.2Q190.1-17.82 190.1-15.55 190.1-13.28 190.65-10.86 191.19-8.45 192.52-6.64 193.84-4.83 195.79-3.74 197.74-2.64 200.56-2.64 203.38-2.64 205.39-3.74 207.4-4.83 208.66-6.64 209.93-8.45 210.53-10.86 211.14-13.28 211.14-15.55 211.14-17.82 210.53-20.2 209.93-22.59 208.66-24.4 207.4-26.21 205.39-27.3 203.38-28.39 200.56-28.39 197.74-28.39 195.79-27.3 193.84-26.21 192.52-24.4 191.19-22.59 190.65-20.2ZM185.79-15.63L185.79-15.63Q185.79-18.97 186.77-21.95 187.74-24.94 189.7-27.07L189.7-27.07Q193.61-31.55 200.5-31.61L200.5-31.61Q207.52-31.61 211.48-27.07L211.48-27.07Q213.38-24.94 214.33-21.95 215.27-18.97 215.27-15.63L215.27-15.63Q215.27-12.24 214.33-9.17 213.38-6.09 211.48-4.02L211.48-4.02Q207.52 0.46 200.5 0.46L200.5 0.46Q193.55 0.46 189.7-4.02L189.7-4.02Q187.74-6.21 186.77-9.22 185.79-12.24 185.79-15.63ZM231.48 0L223.89 0Q222.69 0 222.05-1.15L222.05-1.15Q221.94-1.49 222-1.9L222-1.9 222-29.43Q222-30.57 223.09-31.21L223.09-31.21Q223.43-31.38 223.89-31.38L223.89-31.38 231.36-31.38Q243.72-31.38 247.11-22.41L247.11-22.41Q248.2-19.48 248.14-15.63L248.14-15.63Q248.14-7.93 243.78-3.97L243.78-3.97Q239.41 0 231.48 0L231.48 0ZM225.85-28.28L225.85-2.99 231.94-2.99Q241.13-2.99 243.32-10.46L243.32-10.46Q244.01-12.76 244.01-15.8 244.01-18.85 243.09-21.26 242.17-23.68 240.44-25.29L240.44-25.29Q237.17-28.28 230.79-28.28L230.79-28.28 225.85-28.28ZM274 0L257.11 0Q256.42 0 255.96-0.46L255.96-0.46Q255.15-1.15 255.15-1.9L255.15-1.9 255.15-29.43Q255.15-30.52 256.3-31.15L256.3-31.15Q256.65-31.26 256.99-31.38L256.99-31.38 273.37-31.38Q274.23-31.38 274.64-30.86 275.04-30.34 275.04-29.74 275.04-29.14 274.58-28.62 274.12-28.1 273.37-28.1L273.37-28.1 258.95-28.1 258.95-17.7 272.68-17.7Q273.54-17.7 273.95-17.21 274.35-16.72 274.35-16.09L274.35-16.09Q274.35-15.52 273.89-15.06 273.43-14.6 272.68-14.6L272.68-14.6 258.95-14.6 258.95-3.22 274-3.22Q274.81-3.22 275.21-2.7 275.61-2.18 275.61-1.55 275.61-0.92 275.18-0.46 274.75 0 274 0L274 0Z" fill="#5ebc67" data-fill-palette-color="secondary"></path></g></svg></g></svg></g></svg></g></svg></g><g><svg viewBox="0 0 113.4216005522102 113.4216005522102" height="113.4216005522102" width="113.4216005522102"><g><svg></svg></g><g id="icon-0"><svg viewBox="0 0 113.4216005522102 113.4216005522102" height="113.4216005522102" width="113.4216005522102"><g><path d="M0 56.711c0-31.321 25.39-56.711 56.711-56.711 31.321 0 56.711 25.39 56.711 56.711 0 31.321-25.39 56.711-56.711 56.711-31.321 0-56.711-25.39-56.711-56.711zM56.711 109.221c29 0 52.51-23.509 52.51-52.51 0-29-23.509-52.51-52.51-52.51-29 0-52.51 23.509-52.51 52.51 0 29 23.509 52.51 52.51 52.51z" data-fill-palette-color="accent" fill="#5ebc67" stroke="transparent"></path></g><g transform="matrix(1,0,0,1,23.892364536282265,33.19975174218358)"><svg viewBox="0 0 65.63687147964566 47.02209706784303" height="47.02209706784303" width="65.63687147964566"><g><svg xmlns="http://www.w3.org/2000/svg" xmlns:xlink="http://www.w3.org/1999/xlink" version="1.1" x="0" y="0" viewBox="0.732 7.614412036954755 48.536 34.77107381622495" enable-background="new 0 0 50 50" xml:space="preserve" height="47.02209706784303" width="65.63687147964566" class="icon-_$-0" data-fill-palette-color="accent" id="_$-0"><path d="M17.422 36.759c-0.195 0-0.392-0.057-0.564-0.175L1.167 25.825C0.895 25.639 0.732 25.33 0.732 25s0.163-0.638 0.435-0.825l15.69-10.759c0.457-0.312 1.078-0.196 1.39 0.259 0.313 0.456 0.196 1.078-0.259 1.39L3.5 25l14.488 9.934c0.456 0.313 0.572 0.936 0.259 1.391C18.054 36.606 17.741 36.759 17.422 36.759z" fill="#5ebc67" data-fill-palette-color="accent"></path><path d="M32.578 36.759c-0.318 0-0.632-0.151-0.826-0.435-0.312-0.455-0.196-1.078 0.26-1.391L46.499 25l-14.487-9.934c-0.456-0.313-0.571-0.935-0.26-1.39 0.313-0.455 0.935-0.572 1.391-0.259l15.69 10.759c0.272 0.187 0.435 0.495 0.435 0.825s-0.162 0.639-0.435 0.825l-15.69 10.759C32.97 36.702 32.772 36.759 32.578 36.759z" fill="#5ebc67" data-fill-palette-color="accent"></path><path d="M20.557 41.697c-0.173 0.525-0.738 0.811-1.263 0.638l0 0c-0.524-0.173-0.81-0.737-0.637-1.263l10.787-32.77c0.173-0.525 0.738-0.81 1.263-0.637l0 0c0.524 0.173 0.81 0.738 0.638 1.263L20.557 41.697z" fill="#5ebc67" data-fill-palette-color="accent"></path></svg></g></svg></g></svg></g></svg></g></svg></g><defs></defs></svg><rect width="395.52" height="84.4933109550655" fill="none" stroke="none" visibility="hidden"></rect></g></svg></g></svg>